<?xml version="1.0" encoding="UTF-8"?>
<svg id="Layer_1" data-name="Layer 1" xmlns="http://www.w3.org/2000/svg" version="1.1" viewBox="0 0 50 50">
  <defs>
    <style>
      .cls-1 {
        fill: #231f20;
        stroke-width: 0px;
      }
    </style>
  </defs>
  <path class="cls-1" d="M.2,32.7h5.9c.1,0,.2.1.2.2v10.7h10.7c.1,0,.2.1.2.2v5.9c0,.1-.1.2-.2.2H.2C.1,50,0,49.9,0,49.8v-16.8C0,32.8.1,32.7.2,32.7Z"/>
  <path class="cls-1" d="M32.9,43.7h10.7v-10.7c0-.1.1-.2.2-.2h5.9c.1,0,.2.1.2.2v16.8c0,.1-.1.2-.2.2h-16.8c-.1,0-.2-.1-.2-.2v-5.9c0-.1.1-.2.2-.2Z"/>
  <path class="cls-1" d="M.2,0h16.8c.1,0,.2.1.2.2v5.9c0,.1-.1.2-.2.2H6.3v10.7c0,.1-.1.2-.2.2H.2C.1,17.3,0,17.2,0,17.1V.2C0,.1.1,0,.2,0Z"/>
  <path class="cls-1" d="M32.9,0h16.8c.1,0,.2.1.2.2v16.8c0,.1-.1.2-.2.2h-5.9c-.1,0-.2-.1-.2-.2V6.3h-10.7c-.1,0-.2-.1-.2-.2V.2c0-.1.1-.2.2-.2Z"/>
</svg>