<?xml version="1.0" encoding="UTF-8"?>
<svg id="Layer_1" data-name="Layer 1" xmlns="http://www.w3.org/2000/svg" version="1.1" viewBox="0 0 20 20">
  <defs>
    <style>
      .cls-1 {
        fill: #231f20;
        stroke-width: 0px;
      }
    </style>
  </defs>
  <path class="cls-1" d="M0,13.1h2.4s0,0,0,0v4.3h4.3s0,0,0,0v2.4s0,0,0,0H0s0,0,0,0v-6.7s0,0,0,0Z"/>
  <path class="cls-1" d="M13.2,17.5h4.3v-4.3s0,0,0,0h2.4s0,0,0,0v6.7s0,0,0,0h-6.7s0,0,0,0v-2.4s0,0,0,0Z"/>
  <path class="cls-1" d="M0,0h6.7s0,0,0,0v2.4s0,0,0,0H2.5v4.3s0,0,0,0H0s0,0,0,0V0s0,0,0,0Z"/>
  <path class="cls-1" d="M13.2,0h6.7s0,0,0,0v6.7s0,0,0,0h-2.4s0,0,0,0V2.5h-4.3s0,0,0,0V0s0,0,0,0Z"/>
</svg>